# xmcd
#
# Track frame offsets: 
#        150
#        13510
#        22060
#        35605
#        46852
#        58124
#        69431
#        78846
#        89786
#        99446
#        111871
#        121056
#        130684
#        139342
#        150990
#        159928
#        173149
#        181479
#        194823
#        205844
#        216952
#        228070
#        237390
#        248148
#        257652
#        269538
#        278543
#        287996
#        296523
#        308222
#        317756
#
# Disc length: 4384 seconds
#
# Revision: 0
# Processed by: cddbd v1.5.2PL0 Copyright (c) Steve Scherf et al.
# Submitted via: ExactAudioCopy v0.95b3
#
DISCID=bf111e1f
DTITLE=The Beatles  - Please Please Me - Deluxe Edition - Disc 1  FLAC
DYEAR=1900
DGENRE=
TTITLE0=I Saw Her Standing There (stereo)
TTITLE1=Misery (stereo)
TTITLE2=Anna (Go To Him) (stereo)
TTITLE3=Chains (stereo)
TTITLE4=Boys (stereo)
TTITLE5=Ask Me Why (stereo)
TTITLE6=Please Please Me (stereo)
TTITLE7=Love Me Do (stereo)
TTITLE8=P.S. I Love You (stereo)
TTITLE9=Baby It's You (stereo)
TTITLE10=Do You Want To Know A Secret (stereo)
TTITLE11=A Taste Of Honey (stereo)
TTITLE12=There's A Place (stereo)
TTITLE13=Twist And Shout (stereo)
TTITLE14=How Do You Do It (Anthology Edit)
TTITLE15=I Saw Her Standing There (mono)
TTITLE16=Misery (mono)
TTITLE17=Anna (Go To Him) (mono)
TTITLE18=Chains (mono)
TTITLE19=Boys (mono)
TTITLE20=Ask Me Why (mono)
TTITLE21=Please Please Me (mono)
TTITLE22=Love Me Do (mono)
TTITLE23=P.S. I Love You (mono)
TTITLE24=Baby It's You (mono)
TTITLE25=Do You Want To Know A Secret (mono)
TTITLE26=A Taste Of Honey (mono)
TTITLE27=There's A Place (mono)
TTITLE28=Twist And Shout (mono)
TTITLE29=Please Please Me (single mix)
TTITLE30=Ask Me Why single (single mix)
EXTD=
EXTT0=
EXTT1=
EXTT2=
EXTT3=
EXTT4=
EXTT5=
EXTT6=
EXTT7=
EXTT8=
EXTT9=
EXTT10=
EXTT11=
EXTT12=
EXTT13=
EXTT14=
EXTT15=
EXTT16=
EXTT17=
EXTT18=
EXTT19=
EXTT20=
EXTT21=
EXTT22=
EXTT23=
EXTT24=
EXTT25=
EXTT26=
EXTT27=
EXTT28=
EXTT29=
EXTT30=
PLAYORDER=
